# xmcd CD database file
#
# Track frame offsets:
#	150
#	23751
#	48388
#	73308
#	95504
#
# Disc length: 1625 seconds
#
# Revision: 7
# Processed by: cddbd v1.5PL3 Copyright (c) Steve Scherf et al.
# Submitted via: CDex 1.50beta8
#
DISCID=3f065705
DTITLE=Ego-wrappin' - shikisai no blues
DYEAR=2000
DGENRE=JPop
TTITLE0=nervous Break down
TTITLE1=gigolo feat. mama ! milk
TTITLE2=shikisai no blues
TTITLE3=flowers
TTITLE4=tobacco
EXTD=YEAR: 2000
EXTT0=
EXTT1=
EXTT2=
EXTT3=
EXTT4=
PLAYORDER=
